<?xml version="1.0" encoding="UTF-8" standalone="no"?>
<!-- Created with Inkscape (http://www.inkscape.org/) -->

<svg
   width="437.21838mm"
   height="181.72818mm"
   viewBox="0 0 437.21838 181.72818"
   version="1.1"
   id="svg5"
   xml:space="preserve"
   sodipodi:docname="tahr-text-side-black.svg"
   inkscape:version="1.2.1 (9c6d41e, 2022-07-14)"
   xmlns:inkscape="http://www.inkscape.org/namespaces/inkscape"
   xmlns:sodipodi="http://sodipodi.sourceforge.net/DTD/sodipodi-0.dtd"
   xmlns="http://www.w3.org/2000/svg"
   xmlns:svg="http://www.w3.org/2000/svg"><sodipodi:namedview
     id="namedview7"
     pagecolor="#ffffff"
     bordercolor="#111111"
     borderopacity="1"
     inkscape:showpageshadow="0"
     inkscape:pageopacity="0"
     inkscape:pagecheckerboard="1"
     inkscape:deskcolor="#d1d1d1"
     inkscape:document-units="mm"
     showgrid="false"
     inkscape:zoom="0.041025031"
     inkscape:cx="-2352.2225"
     inkscape:cy="-816.57465"
     inkscape:window-width="1366"
     inkscape:window-height="742"
     inkscape:window-x="0"
     inkscape:window-y="0"
     inkscape:window-maximized="1"
     inkscape:current-layer="layer1" /><defs
     id="defs2"><rect
       x="0"
       y="659.71344"
       width="741.10486"
       height="177.08788"
       id="rect416" /><rect
       x="1371.4034"
       y="333.6012"
       width="1492.6368"
       height="919.34344"
       id="rect3827" /><rect
       x="1263.7253"
       y="396.05051"
       width="812.11884"
       height="290.31857"
       id="rect3170" /><inkscape:path-effect
       effect="bspline"
       id="path-effect7282"
       is_visible="true"
       lpeversion="1"
       weight="33.333333"
       steps="2"
       helper_size="0"
       apply_no_weight="true"
       apply_with_weight="true"
       only_selected="false" /><inkscape:path-effect
       effect="bspline"
       id="path-effect7278"
       is_visible="true"
       lpeversion="1"
       weight="33.333333"
       steps="2"
       helper_size="0"
       apply_no_weight="true"
       apply_with_weight="true"
       only_selected="false" /><inkscape:path-effect
       effect="bspline"
       id="path-effect5170"
       is_visible="true"
       lpeversion="1"
       weight="33.333333"
       steps="2"
       helper_size="0"
       apply_no_weight="true"
       apply_with_weight="true"
       only_selected="false" /><inkscape:path-effect
       effect="bspline"
       id="path-effect4254"
       is_visible="true"
       lpeversion="1"
       weight="33.333333"
       steps="2"
       helper_size="0"
       apply_no_weight="true"
       apply_with_weight="true"
       only_selected="false" /><inkscape:path-effect
       effect="bspline"
       id="path-effect4250"
       is_visible="true"
       lpeversion="1"
       weight="33.333333"
       steps="2"
       helper_size="0"
       apply_no_weight="true"
       apply_with_weight="true"
       only_selected="false" /><inkscape:path-effect
       effect="bspline"
       id="path-effect7595"
       is_visible="true"
       lpeversion="1"
       weight="33.333333"
       steps="2"
       helper_size="0"
       apply_no_weight="true"
       apply_with_weight="true"
       only_selected="false" /><inkscape:path-effect
       effect="bspline"
       id="path-effect7591"
       is_visible="true"
       lpeversion="1"
       weight="33.333333"
       steps="2"
       helper_size="0"
       apply_no_weight="true"
       apply_with_weight="true"
       only_selected="false" /><rect
       x="363.62314"
       y="717.91418"
       width="397.29828"
       height="93.770943"
       id="rect4528" /><inkscape:path-effect
       effect="bspline"
       id="path-effect4220"
       is_visible="true"
       lpeversion="1"
       weight="33.333333"
       steps="2"
       helper_size="0"
       apply_no_weight="true"
       apply_with_weight="true"
       only_selected="false" /><inkscape:path-effect
       effect="bspline"
       id="path-effect4216"
       is_visible="true"
       lpeversion="1"
       weight="33.333333"
       steps="2"
       helper_size="0"
       apply_no_weight="true"
       apply_with_weight="true"
       only_selected="false" /><inkscape:path-effect
       effect="bspline"
       id="path-effect4212"
       is_visible="true"
       lpeversion="1"
       weight="33.333333"
       steps="2"
       helper_size="0"
       apply_no_weight="true"
       apply_with_weight="true"
       only_selected="false" /><inkscape:path-effect
       effect="bspline"
       id="path-effect4208"
       is_visible="true"
       lpeversion="1"
       weight="33.333333"
       steps="2"
       helper_size="0"
       apply_no_weight="true"
       apply_with_weight="true"
       only_selected="false" /><inkscape:path-effect
       effect="bspline"
       id="path-effect4204"
       is_visible="true"
       lpeversion="1"
       weight="33.333333"
       steps="2"
       helper_size="0"
       apply_no_weight="true"
       apply_with_weight="true"
       only_selected="false" /><inkscape:path-effect
       effect="bspline"
       id="path-effect4200"
       is_visible="true"
       lpeversion="1"
       weight="33.333333"
       steps="2"
       helper_size="0"
       apply_no_weight="true"
       apply_with_weight="true"
       only_selected="false" /><inkscape:path-effect
       effect="bspline"
       id="path-effect4014"
       is_visible="true"
       lpeversion="1"
       weight="33.333333"
       steps="2"
       helper_size="0"
       apply_no_weight="true"
       apply_with_weight="true"
       only_selected="false" /><inkscape:path-effect
       effect="bspline"
       id="path-effect2374"
       is_visible="true"
       lpeversion="1"
       weight="33.333333"
       steps="2"
       helper_size="0"
       apply_no_weight="true"
       apply_with_weight="true"
       only_selected="false" /><inkscape:path-effect
       effect="bspline"
       id="path-effect2370"
       is_visible="true"
       lpeversion="1"
       weight="33.333333"
       steps="2"
       helper_size="0"
       apply_no_weight="true"
       apply_with_weight="true"
       only_selected="false" /><inkscape:path-effect
       effect="bspline"
       id="path-effect2321"
       is_visible="true"
       lpeversion="1"
       weight="33.333333"
       steps="2"
       helper_size="0"
       apply_no_weight="true"
       apply_with_weight="true"
       only_selected="false" /><inkscape:path-effect
       effect="bspline"
       id="path-effect2142"
       is_visible="true"
       lpeversion="1"
       weight="33.333333"
       steps="2"
       helper_size="0"
       apply_no_weight="true"
       apply_with_weight="true"
       only_selected="false" /><inkscape:path-effect
       effect="bspline"
       id="path-effect2138"
       is_visible="true"
       lpeversion="1"
       weight="33.333333"
       steps="2"
       helper_size="0"
       apply_no_weight="true"
       apply_with_weight="true"
       only_selected="false" /><inkscape:path-effect
       effect="bspline"
       id="path-effect2092"
       is_visible="true"
       lpeversion="1"
       weight="33.333333"
       steps="2"
       helper_size="0"
       apply_no_weight="true"
       apply_with_weight="true"
       only_selected="false" /><inkscape:path-effect
       effect="bspline"
       id="path-effect2088"
       is_visible="true"
       lpeversion="1"
       weight="33.333333"
       steps="2"
       helper_size="0"
       apply_no_weight="true"
       apply_with_weight="true"
       only_selected="false" /><inkscape:path-effect
       effect="bspline"
       id="path-effect2008"
       is_visible="true"
       lpeversion="1"
       weight="33.333333"
       steps="2"
       helper_size="0"
       apply_no_weight="true"
       apply_with_weight="true"
       only_selected="false" /><inkscape:path-effect
       effect="bspline"
       id="path-effect2004"
       is_visible="true"
       lpeversion="1"
       weight="33.333333"
       steps="2"
       helper_size="0"
       apply_no_weight="true"
       apply_with_weight="true"
       only_selected="false" /><inkscape:path-effect
       effect="bspline"
       id="path-effect2000"
       is_visible="true"
       lpeversion="1"
       weight="33.333333"
       steps="2"
       helper_size="0"
       apply_no_weight="true"
       apply_with_weight="true"
       only_selected="false" /><inkscape:path-effect
       effect="bspline"
       id="path-effect1996"
       is_visible="true"
       lpeversion="1"
       weight="33.333333"
       steps="2"
       helper_size="0"
       apply_no_weight="true"
       apply_with_weight="true"
       only_selected="false" /><inkscape:path-effect
       effect="bspline"
       id="path-effect1886"
       is_visible="true"
       lpeversion="1"
       weight="33.333333"
       steps="2"
       helper_size="0"
       apply_no_weight="true"
       apply_with_weight="true"
       only_selected="false" /><inkscape:path-effect
       effect="bspline"
       id="path-effect1882"
       is_visible="true"
       lpeversion="1"
       weight="33.333333"
       steps="2"
       helper_size="0"
       apply_no_weight="true"
       apply_with_weight="true"
       only_selected="false" /><inkscape:path-effect
       effect="bspline"
       id="path-effect1878"
       is_visible="true"
       lpeversion="1"
       weight="33.333333"
       steps="2"
       helper_size="0"
       apply_no_weight="true"
       apply_with_weight="true"
       only_selected="false" /><inkscape:path-effect
       effect="bspline"
       id="path-effect1874"
       is_visible="true"
       lpeversion="1"
       weight="33.333333"
       steps="2"
       helper_size="0"
       apply_no_weight="true"
       apply_with_weight="true"
       only_selected="false" /><inkscape:path-effect
       effect="bspline"
       id="path-effect1870"
       is_visible="true"
       lpeversion="1"
       weight="33.333333"
       steps="2"
       helper_size="0"
       apply_no_weight="true"
       apply_with_weight="true"
       only_selected="false" /><inkscape:path-effect
       effect="bspline"
       id="path-effect1808"
       is_visible="true"
       lpeversion="1"
       weight="33.333333"
       steps="2"
       helper_size="0"
       apply_no_weight="true"
       apply_with_weight="true"
       only_selected="false" /><inkscape:path-effect
       effect="bspline"
       id="path-effect1804"
       is_visible="true"
       lpeversion="1"
       weight="33.333333"
       steps="2"
       helper_size="0"
       apply_no_weight="true"
       apply_with_weight="true"
       only_selected="false" /><inkscape:path-effect
       effect="bspline"
       id="path-effect1772"
       is_visible="true"
       lpeversion="1"
       weight="33.333333"
       steps="2"
       helper_size="0"
       apply_no_weight="true"
       apply_with_weight="true"
       only_selected="false" /><inkscape:path-effect
       effect="bspline"
       id="path-effect1716"
       is_visible="true"
       lpeversion="1"
       weight="33.333333"
       steps="2"
       helper_size="0"
       apply_no_weight="true"
       apply_with_weight="true"
       only_selected="false" /><inkscape:path-effect
       effect="bspline"
       id="path-effect1474"
       is_visible="true"
       lpeversion="1"
       weight="33.333333"
       steps="2"
       helper_size="0"
       apply_no_weight="true"
       apply_with_weight="true"
       only_selected="false" /><inkscape:path-effect
       effect="bspline"
       id="path-effect853"
       is_visible="true"
       lpeversion="1"
       weight="33.333333"
       steps="2"
       helper_size="0"
       apply_no_weight="true"
       apply_with_weight="true"
       only_selected="false" /><inkscape:path-effect
       effect="bspline"
       id="path-effect1778"
       is_visible="true"
       lpeversion="1"
       weight="33.333333"
       steps="2"
       helper_size="0"
       apply_no_weight="true"
       apply_with_weight="true"
       only_selected="false" /><inkscape:path-effect
       effect="bspline"
       id="path-effect1751"
       is_visible="true"
       lpeversion="1"
       weight="33.333333"
       steps="2"
       helper_size="0"
       apply_no_weight="true"
       apply_with_weight="true"
       only_selected="false" /><inkscape:path-effect
       effect="bspline"
       id="path-effect1726"
       is_visible="true"
       lpeversion="1"
       weight="33.333333"
       steps="2"
       helper_size="0"
       apply_no_weight="true"
       apply_with_weight="true"
       only_selected="false" /><inkscape:path-effect
       effect="bspline"
       id="path-effect1683"
       is_visible="true"
       lpeversion="1"
       weight="33.333333"
       steps="2"
       helper_size="0"
       apply_no_weight="true"
       apply_with_weight="true"
       only_selected="false" /><inkscape:path-effect
       effect="bspline"
       id="path-effect1679"
       is_visible="true"
       lpeversion="1"
       weight="33.333333"
       steps="2"
       helper_size="0"
       apply_no_weight="true"
       apply_with_weight="true"
       only_selected="false" /><inkscape:path-effect
       effect="bspline"
       id="path-effect1526"
       is_visible="true"
       lpeversion="1"
       weight="33.333333"
       steps="2"
       helper_size="0"
       apply_no_weight="true"
       apply_with_weight="true"
       only_selected="false" /><inkscape:path-effect
       effect="bspline"
       id="path-effect1522"
       is_visible="true"
       lpeversion="1"
       weight="33.333333"
       steps="2"
       helper_size="0"
       apply_no_weight="true"
       apply_with_weight="true"
       only_selected="false" /><inkscape:path-effect
       effect="bspline"
       id="path-effect1518"
       is_visible="true"
       lpeversion="1"
       weight="33.333333"
       steps="2"
       helper_size="0"
       apply_no_weight="true"
       apply_with_weight="true"
       only_selected="false" /><inkscape:path-effect
       effect="bspline"
       id="path-effect1465"
       is_visible="true"
       lpeversion="1"
       weight="33.333333"
       steps="2"
       helper_size="0"
       apply_no_weight="true"
       apply_with_weight="true"
       only_selected="false" /><inkscape:path-effect
       effect="bspline"
       id="path-effect1412"
       is_visible="true"
       lpeversion="1"
       weight="33.333333"
       steps="2"
       helper_size="0"
       apply_no_weight="true"
       apply_with_weight="true"
       only_selected="false" /><rect
       x="-1838.4034"
       y="385.07272"
       width="556.45142"
       height="105.66717"
       id="rect1116" /><filter
       style="color-interpolation-filters:sRGB"
       inkscape:label="Invert"
       id="filter864"
       x="0"
       y="0"
       width="1"
       height="1"><feColorMatrix
         type="hueRotate"
         values="180"
         result="color1"
         id="feColorMatrix860" /><feColorMatrix
         values="-1 0 0 0 1 0 -1 0 0 1 0 0 -1 0 1 -0.21 -0.72 -0.07 2 0 "
         result="color2"
         id="feColorMatrix862" /></filter><inkscape:path-effect
       effect="bspline"
       id="path-effect1474-3"
       is_visible="true"
       lpeversion="1"
       weight="33.333333"
       steps="2"
       helper_size="0"
       apply_no_weight="true"
       apply_with_weight="true"
       only_selected="false" /><inkscape:path-effect
       effect="bspline"
       id="path-effect1474-7"
       is_visible="true"
       lpeversion="1"
       weight="33.333333"
       steps="2"
       helper_size="0"
       apply_no_weight="true"
       apply_with_weight="true"
       only_selected="false" /><inkscape:path-effect
       effect="bspline"
       id="path-effect1474-9"
       is_visible="true"
       lpeversion="1"
       weight="33.333333"
       steps="2"
       helper_size="0"
       apply_no_weight="true"
       apply_with_weight="true"
       only_selected="false" /><inkscape:path-effect
       effect="bspline"
       id="path-effect7595-2"
       is_visible="true"
       lpeversion="1"
       weight="33.333333"
       steps="2"
       helper_size="0"
       apply_no_weight="true"
       apply_with_weight="true"
       only_selected="false" /><inkscape:path-effect
       effect="bspline"
       id="path-effect7591-7"
       is_visible="true"
       lpeversion="1"
       weight="33.333333"
       steps="2"
       helper_size="0"
       apply_no_weight="true"
       apply_with_weight="true"
       only_selected="false" /><inkscape:path-effect
       effect="bspline"
       id="path-effect1474-36"
       is_visible="true"
       lpeversion="1"
       weight="33.333333"
       steps="2"
       helper_size="0"
       apply_no_weight="true"
       apply_with_weight="true"
       only_selected="false" /><inkscape:path-effect
       effect="bspline"
       id="path-effect1474-5"
       is_visible="true"
       lpeversion="1"
       weight="33.333333"
       steps="2"
       helper_size="0"
       apply_no_weight="true"
       apply_with_weight="true"
       only_selected="false" /><clipPath
       clipPathUnits="userSpaceOnUse"
       id="clipPath3106"><rect
         style="fill:#000000;stroke:#000000;stroke-width:0.1;stroke-linecap:round"
         id="rect3108"
         width="76.673485"
         height="83.044197"
         x="304.71576"
         y="241.50412"
         transform="scale(-1,1)" /></clipPath></defs><g
     inkscape:label="Layer 1"
     inkscape:groupmode="layer"
     id="layer1"
     transform="translate(1103.632,572.98446)"><path
       style="opacity:1;fill:#000000;stroke:#000000;stroke-width:0.111097;stroke-linecap:round"
       d="m -1079.3585,-510.71891 c -16.1395,29.99159 5.8873,47.2492 20.65,70.54463 9.1863,14.49584 11.9573,25.39332 11.9573,43.17943 v 0 c -3.3902,-8.772 -10.0784,-18.90054 -14.7093,-25.33088 -8.1796,-11.35826 -14.9249,-17.40975 -21.3423,-28.57503 -5.4463,-9.47575 -9.7931,-20.51761 -8.1163,-35.90178 0.803,-7.36561 6.4798,-18.34966 11.5606,-23.91637 z"
       id="path4367"
       sodipodi:nodetypes="csccssscc" /><path
       style="fill:#000000;stroke:#000000;stroke-width:0.111097;stroke-linecap:round"
       d="m -1078.7291,-565.88148 c 0.206,-0.0386 0.6182,-0.11591 4.3606,-0.29202 3.7423,-0.17611 10.8084,-0.45081 17.4503,2.3375 6.642,2.78831 12.8558,8.63881 16.9569,14.33239 4.101,5.69358 6.0884,11.22898 8.3372,14.52528 2.2488,3.2963 4.7588,4.35354 6.802,4.6856 2.0432,0.33207 3.6199,-0.0607 3.458,-3.24441 -0.162,-3.18369 -2.0625,-9.15875 -5.1084,-14.41046 -3.0459,-5.2517 -7.2373,-9.78024 -9.3331,-12.04467 -2.0959,-2.26444 -2.0959,-2.26444 0.5023,-0.79325 2.5981,1.47118 7.794,4.41329 11.4719,9.15416 3.6779,4.74088 5.8374,11.27995 8.3889,13.91617 2.5515,2.63622 5.4952,1.37007 6.7301,-0.29319 1.2349,-1.66325 0.7613,-3.72404 -1.3514,-8.37697 -2.1127,-4.65292 -5.8645,-11.89771 -13.2145,-17.34724 -7.35,-5.44954 -18.298,-9.10341 -28.2039,-9.19456 -9.9059,-0.0912 -18.7689,3.38062 -23.2005,5.11655 -4.4316,1.73594 -4.2525,1.96775 -4.0464,1.92912 z"
       id="path1472"
       sodipodi:nodetypes="cccccccccccccccccc" /><path
       style="fill:#000000;stroke:#000000;stroke-width:0.111097;stroke-linecap:round"
       d="m -1082.2561,-519.52804 c -0.9562,-1.49691 -2.8687,-4.49085 -4.1053,-9.4885 -1.2366,-4.99765 -1.7969,-11.9985 -0.8056,-17.52768 0.9913,-5.52918 3.667,-9.79825 6.7992,-11.73123 3.1321,-1.93298 7.4105,-1.95595 11.4767,-1.97779 0,0 0,0 -0.9573,0.64785 -0.9573,0.64784 -2.872,1.94355 -4.3347,3.5988 -1.4626,1.65526 -2.4979,3.71893 -3.0047,5.32321 -0.5068,1.60429 -0.5359,2.90964 -0.55,3.54662 -0.014,0.63698 -0.014,0.63698 0.9411,-0.23944 0.9553,-0.87643 2.8659,-2.62936 6.01,-4.73857 3.1442,-2.1092 7.5218,-4.57466 11.6293,-4.48392 4.1075,0.0907 5.2519,0.88014 6.497,1.73909 1.2452,0.85894 1.2452,0.85894 -1.0865,1.63941 -2.3316,0.78047 -6.9952,2.34149 -11.6144,5.4848 -4.6193,3.14331 -9.1938,7.86869 -11.8429,13.08323 -2.649,5.21453 -3.3724,10.91783 -3.7341,13.76934 -0.3617,2.85151 -0.3616,2.85168 -1.3178,1.35478 z"
       id="path2372"
       sodipodi:nodetypes="ccccccaaccccccaacc" /><path
       style="opacity:1;fill:#000000;stroke:#000000;stroke-width:0.127107;stroke-linecap:round;stroke-dasharray:none;stroke-opacity:1"
       d="m -1002.1849,-517.49234 c 2.3618,1.15337 7.08492,3.45983 12.08012,8.15694 4.9952,4.69711 10.26263,11.7847 13.24874,17.21576 2.98611,5.43106 3.69085,9.20502 4.04325,11.09212 0.35239,1.8871 0.35239,1.8871 -0.64895,0.91821 -1.00134,-0.96889 -3.00439,-2.90703 -7.86394,-3.60328 -4.85954,-0.69625 -12.57534,-0.15029 -19.50802,-0.62558 -6.9327,-0.47529 -13.0817,-1.97191 -17.8393,-4.3917 -4.7577,-2.41979 -8.1233,-5.76273 -8.8747,-9.71264 -0.7514,-3.94992 1.1116,-8.50633 2.0431,-10.78464 0.9316,-2.27832 0.9316,-2.27832 -1.2116,-0.0111 -2.1433,2.26721 -6.4296,6.80147 -6.8852,11.93759 -0.4556,5.13612 2.9194,10.87318 6.8964,14.56487 3.977,3.6917 8.5549,5.33771 14.7873,6.27545 6.2324,0.93774 14.11791,1.16702 19.91126,1.33597 5.79335,0.16894 9.49365,0.27753 13.54944,1.60969 4.0558,1.33217 8.46654,3.88754 11.50944,5.52658 3.04291,1.63904 4.71769,2.36161 6.30269,2.38546 1.585,0.0238 3.08042,-0.65066 4.32695,-2.13706 1.24654,-1.48641 2.24423,-3.78466 2.5577,-5.21798 0.31347,-1.43331 -0.0577,-2.00193 -0.54924,-2.26289 -0.49156,-0.26096 -1.10376,-0.21386 -2.95169,-0.8294 -1.84793,-0.61553 -4.93162,-1.8939 -7.13695,-4.33033 -2.20533,-2.43643 -3.5318,-6.03105 -4.1951,-7.82853 -0.6633,-1.79748 -0.6633,-1.79748 0.30003,-0.69666 0.96332,1.10081 2.88951,3.30192 5.50306,4.72695 2.61355,1.42503 5.91404,2.07403 7.56413,2.3985 1.65008,0.32447 1.65008,0.40577 1.71018,-0.1717 0.0601,-0.57747 0.18034,-1.73263 -0.22775,-2.97515 -0.40808,-1.24253 -1.3447,-2.57245 -3.50325,-5.09262 -2.15855,-2.52017 -5.53928,-6.23078 -8.99595,-10.02299 -3.45666,-3.79222 -6.98993,-7.66678 -12.12507,-13.35247 -5.13514,-5.6857 -11.87231,-13.1827 -16.09658,-17.13045 -4.22426,-3.94775 -5.9357,-4.34571 -7.3079,-4.32056 -1.3723,0.0252 -2.4052,0.4736 -3.5372,1.56342 -1.132,1.08981 -2.3628,2.82083 -3.7585,4.10512 -1.3957,1.28429 -2.9564,2.1218 -4.209,2.60782 -1.2525,0.48601 -2.1968,0.62041 -2.0493,1.56436 0.1475,0.94396 1.3868,2.6965 2.6264,4.44948 0,0 0,0 0,0 -1.5678,-0.91676 -3.1566,-1.84574 -5.3487,-2.87889 -2.1921,-1.03315 -5.156,-2.24677 -8.2858,-2.86958 -3.1299,-0.6228 -6.7349,-0.71426 -10.8103,0.0943 -4.0754,0.80857 -8.9636,2.57223 -11.3667,3.43926 -2.4031,0.86703 -2.4031,0.86703 -1.9445,2.33667 0.4585,1.46964 1.3755,4.4085 2.6781,6.72872 1.3026,2.32021 2.9902,4.02126 5.1493,5.18122 2.159,1.15996 4.7888,1.77842 6.1035,2.0876 1.3147,0.30917 1.3147,0.30917 0.3619,-0.64472 -0.9527,-0.9539 -2.8588,-2.86225 -4.4799,-4.78408 -1.6211,-1.92183 -2.9576,-3.85754 -3.6259,-4.82558 -0.6684,-0.96804 -0.6684,-0.96804 1.4512,-1.69136 2.1196,-0.72332 6.3583,-2.1698 12.0357,-1.67715 5.6774,0.49266 12.7921,2.92411 18.4687,6.23363 5.6765,3.30952 9.9132,7.49612 12.052,9.56902 2.13878,2.0729 2.17963,2.03219 2.2205,1.99147 -0.6906,-4.09791 -1.41179,-8.37733 -2.4611,-10.98415 -1.0493,-2.60683 -2.6222,-4.0252 -4.1279,-5.383 0,0 0.083,-0.0133 2.4449,1.14005 z"
       id="path1776"
       sodipodi:nodetypes="ccccccccccccccccccccccccccccccccccccccccsaacccccccccccccscc" /><path
       style="opacity:1;fill:#000000;stroke:#000000;stroke-width:0.111097;stroke-linecap:round"
       d="m -1005.3325,-447.37831 c 0,0 2.5029,-4.76743 4.2757,-10.63973 1.3588,-4.50108 2.0462,-10.13627 2.3119,-11.84584 0.022,-0.14407 0.045,-0.28808 0.066,-0.43221 v 0 c 0.035,0.11864 0.07,0.23735 0.1058,0.35612 0.088,0.30299 0.1749,0.60638 0.2592,0.91011 3.8934,14.03009 3.2963,28.80048 -5.5304,42.40971 -8.4687,13.05714 -16.348,20.82059 -31.0823,35.268 v 0 c -1.9337,-4.38501 -1.6478,-13.93171 -2.1893,-18.30821 -1.2904,-10.42852 -1.7794,-16.25175 -8.5272,-31.43456 -6.8002,-15.30027 -19.4641,-22.27476 -25.418,-38.64801 -2.641,-7.26294 -2.5363,-14.53625 -2.2277,-22.27909 v 0 c 0.028,1.71427 0.082,3.22292 0.1189,4.82323 0.2373,10.37016 12.8666,20.42787 22.2682,30.15982 7.8496,8.1254 16.2163,17.54198 20.9398,26.6153 4.0942,7.86463 5.1587,15.47137 4.3668,21.7559 v 0 c 3.8955,-4.31494 7.9175,-7.9386 10.8674,-12.6506 0.6324,-1.01039 1.2543,-2.10109 1.4221,-3.28129 0.7495,-5.27419 -2.4695,-9.37622 -5.5554,-14.26993 -5.0185,-7.95813 -12.6704,-14.00091 -18.7973,-19.8587 -17.1436,-16.39023 -27.2189,-19.34194 -21.7358,-48.42025 v 0 c -0.178,4.3332 0.2343,13.19003 9.2755,22.88898 5.718,6.13395 9.4426,10.608 16.1802,15.72464 2.8064,2.13127 13.4456,8.83851 18.7521,14.86653 6.3697,7.23585 9.6592,15.74422 9.8537,16.29008"
       id="path3558"
       sodipodi:nodetypes="cscccsssccsssccsssccasssccsssc" /><path
       style="opacity:1;fill:#000000;stroke:#000000;stroke-width:0.111097;stroke-linecap:round"
       d="m -1067.552,-403.88937 c -0.058,-11.13598 -3.9678,-16.16326 -8.4726,-21.7399 -4.3202,-5.34816 -7.281,-9.15566 -11.6501,-15.29013 -9.9357,-13.94997 -14.4953,-27.83368 -10.055,-48.43375 v 0 c -4.8902,9.52319 -10.2963,34.12386 0.095,51.57797 4.6811,7.86187 11.6147,12.72132 17.7474,18.94971 4.4056,4.47422 7.7965,8.37172 12.3343,14.9361 z"
       id="path5875"
       sodipodi:nodetypes="cssccsscc" /><g
       aria-label="Tahr Lab"
       transform="matrix(0.5037431,0,0,0.5037431,-927.20492,-849.3396)"
       id="text414"
       style="font-size:133.333px;font-family:'Inter Display';-inkscape-font-specification:'Inter Display';white-space:pre;shape-inside:url(#rect416);display:inline;fill:#0000ff;stroke:#46004d;stroke-width:46.8775;stroke-linecap:round"><path
         d="m 1.041664,704.75024 h 30.078048 v 77.92949 h 20.83328 v -77.92949 h 30.012944 v -17.9036 H 1.041664 Z"
         style="font-weight:bold;-inkscape-font-specification:'Inter Display Bold';fill:#000000;stroke:none"
         id="path3278" /><path
         d="m 100.19506,783.72139 c 10.22133,0 16.92704,-3.84113 20.70307,-10.74216 h 0.26042 v 9.7005 h 18.94526 v -47.1353 c 0,-13.0859 -11.52341,-22.65619 -30.27336,-22.65619 -19.400992,0 -30.208256,10.22133 -30.989504,23.04682 H 97.78621 c 0.520832,-5.27343 5.14322,-8.52863 11.78382,-8.52863 6.57551,0 10.74216,3.12499 10.74216,8.0729 v 0.32552 c 0,4.36197 -4.42707,5.01301 -16.92704,6.18488 -14.453084,1.23697 -26.822844,5.85936 -26.822844,21.35411 0,13.73694 9.895808,20.37755 23.632754,20.37755 z m 5.72915,-13.60673 c -6.18488,0 -10.221328,-2.73437 -10.221328,-7.42186 0,-5.20832 4.947908,-7.81248 11.328098,-8.72394 6.05467,-0.84635 11.19789,-1.88801 13.41142,-3.05988 v 6.77081 c 0,7.22655 -5.72915,12.43487 -14.51819,12.43487 z"
         style="font-weight:bold;-inkscape-font-specification:'Inter Display Bold';fill:#000000;stroke:none"
         id="path3280" /><path
         d="m 170.70269,742.31525 c 0.0651,-9.7656 5.92446,-14.71351 13.67184,-14.71351 8.138,0 13.0859,5.01301 13.0208,13.99736 v 41.08063 h 19.92182 v -44.59624 c 0.0651,-16.73173 -10.67705,-27.01816 -25.39056,-27.01816 -10.67705,0 -18.09891,5.46873 -21.289,13.60673 h -0.45573 v -37.82542 h -19.40099 v 95.83309 h 19.92182 z"
         style="font-weight:bold;-inkscape-font-specification:'Inter Display Bold';fill:#000000;stroke:none"
         id="path3282" /><path
         d="m 227.9942,782.67973 h 19.92182 v -37.63011 c 0,-9.57029 6.05467,-14.90882 13.67184,-14.84372 2.86458,-0.0651 6.5104,0.45573 8.39842,1.10677 v -17.70829 c -1.5625,-0.39062 -3.64583,-0.71614 -5.79426,-0.71614 -8.00779,0 -13.73694,4.62238 -16.40621,13.47653 h -0.52083 V 713.9299 H 227.9942 Z"
         style="font-weight:bold;-inkscape-font-specification:'Inter Display Bold';fill:#000000;stroke:none"
         id="path3284" /><path
         d="m 307.42109,782.67973 h 61.39307 v -17.8385 h -40.49469 v -77.99459 h -20.89838 z"
         style="font-weight:bold;-inkscape-font-specification:'Inter Display Bold';fill:#000000;stroke:none"
         id="path3286" /><path
         d="m 398.95732,783.72139 c 10.22133,0 16.92704,-3.84113 20.70307,-10.74216 h 0.26042 v 9.7005 h 18.94526 v -47.1353 c 0,-13.0859 -11.52341,-22.65619 -30.27336,-22.65619 -19.40099,0 -30.20826,10.22133 -30.9895,23.04682 h 18.94526 c 0.52083,-5.27343 5.14322,-8.52863 11.78382,-8.52863 6.57551,0 10.74216,3.12499 10.74216,8.0729 v 0.32552 c 0,4.36197 -4.42707,5.01301 -16.92704,6.18488 -14.45308,1.23697 -26.82284,5.85936 -26.82284,21.35411 0,13.73694 9.8958,20.37755 23.63275,20.37755 z m 5.72915,-13.60673 c -6.18488,0 -10.22133,-2.73437 -10.22133,-7.42186 0,-5.20832 4.94791,-7.81248 11.3281,-8.72394 6.05467,-0.84635 11.19789,-1.88801 13.41142,-3.05988 v 6.77081 c 0,7.22655 -5.72915,12.43487 -14.51819,12.43487 z"
         style="font-weight:bold;-inkscape-font-specification:'Inter Display Bold';fill:#000000;stroke:none"
         id="path3288" /><path
         d="m 489.9076,783.72139 c 15.82027,0 27.7343,-12.56507 27.79941,-35.48168 -0.0651,-23.56765 -12.63018,-35.35147 -27.73431,-35.35147 -9.57029,0 -16.73173,4.8177 -20.11713,12.10934 h -0.26042 v -38.15094 h -19.98693 v 95.83309 h 19.85672 v -10.87237 h 0.26042 c 3.64582,7.35675 10.74216,11.91403 20.18224,11.91403 z m -6.57551,-15.88537 c -8.91924,0 -14.51819,-7.61717 -14.38798,-19.59631 -0.13021,-12.10934 5.53384,-19.5312 14.38798,-19.5312 8.59373,0 14.25778,6.90103 14.25778,19.5312 0,12.69528 -5.66405,19.59631 -14.25778,19.59631 z"
         style="font-weight:bold;-inkscape-font-specification:'Inter Display Bold';fill:#000000;stroke:none"
         id="path3290" /></g></g></svg>
