<?xml version="1.0" encoding="UTF-8" standalone="no"?>
<!-- Created with Inkscape (http://www.inkscape.org/) -->

<svg
   width="196.084mm"
   height="237.17467mm"
   viewBox="0 0 196.084 237.17467"
   version="1.1"
   id="svg5"
   xml:space="preserve"
   sodipodi:docname="tahr-logo-eggplant.svg"
   inkscape:version="1.2.1 (9c6d41e, 2022-07-14)"
   xmlns:inkscape="http://www.inkscape.org/namespaces/inkscape"
   xmlns:sodipodi="http://sodipodi.sourceforge.net/DTD/sodipodi-0.dtd"
   xmlns="http://www.w3.org/2000/svg"
   xmlns:svg="http://www.w3.org/2000/svg"><sodipodi:namedview
     id="namedview7"
     pagecolor="#ffffff"
     bordercolor="#111111"
     borderopacity="1"
     inkscape:showpageshadow="0"
     inkscape:pageopacity="0"
     inkscape:pagecheckerboard="1"
     inkscape:deskcolor="#d1d1d1"
     inkscape:document-units="mm"
     showgrid="false"
     inkscape:zoom="0.23662862"
     inkscape:cx="-48.599363"
     inkscape:cy="589.53141"
     inkscape:window-width="1366"
     inkscape:window-height="742"
     inkscape:window-x="0"
     inkscape:window-y="0"
     inkscape:window-maximized="1"
     inkscape:current-layer="layer1" /><defs
     id="defs2"><rect
       x="1371.4034"
       y="333.6012"
       width="1492.6368"
       height="919.34344"
       id="rect3827" /><rect
       x="1263.7253"
       y="396.05051"
       width="812.11884"
       height="290.31857"
       id="rect3170" /><inkscape:path-effect
       effect="bspline"
       id="path-effect7282"
       is_visible="true"
       lpeversion="1"
       weight="33.333333"
       steps="2"
       helper_size="0"
       apply_no_weight="true"
       apply_with_weight="true"
       only_selected="false" /><inkscape:path-effect
       effect="bspline"
       id="path-effect7278"
       is_visible="true"
       lpeversion="1"
       weight="33.333333"
       steps="2"
       helper_size="0"
       apply_no_weight="true"
       apply_with_weight="true"
       only_selected="false" /><inkscape:path-effect
       effect="bspline"
       id="path-effect5170"
       is_visible="true"
       lpeversion="1"
       weight="33.333333"
       steps="2"
       helper_size="0"
       apply_no_weight="true"
       apply_with_weight="true"
       only_selected="false" /><inkscape:path-effect
       effect="bspline"
       id="path-effect4254"
       is_visible="true"
       lpeversion="1"
       weight="33.333333"
       steps="2"
       helper_size="0"
       apply_no_weight="true"
       apply_with_weight="true"
       only_selected="false" /><inkscape:path-effect
       effect="bspline"
       id="path-effect4250"
       is_visible="true"
       lpeversion="1"
       weight="33.333333"
       steps="2"
       helper_size="0"
       apply_no_weight="true"
       apply_with_weight="true"
       only_selected="false" /><inkscape:path-effect
       effect="bspline"
       id="path-effect7595"
       is_visible="true"
       lpeversion="1"
       weight="33.333333"
       steps="2"
       helper_size="0"
       apply_no_weight="true"
       apply_with_weight="true"
       only_selected="false" /><inkscape:path-effect
       effect="bspline"
       id="path-effect7591"
       is_visible="true"
       lpeversion="1"
       weight="33.333333"
       steps="2"
       helper_size="0"
       apply_no_weight="true"
       apply_with_weight="true"
       only_selected="false" /><rect
       x="363.62314"
       y="717.91418"
       width="397.29828"
       height="93.770943"
       id="rect4528" /><inkscape:path-effect
       effect="bspline"
       id="path-effect4220"
       is_visible="true"
       lpeversion="1"
       weight="33.333333"
       steps="2"
       helper_size="0"
       apply_no_weight="true"
       apply_with_weight="true"
       only_selected="false" /><inkscape:path-effect
       effect="bspline"
       id="path-effect4216"
       is_visible="true"
       lpeversion="1"
       weight="33.333333"
       steps="2"
       helper_size="0"
       apply_no_weight="true"
       apply_with_weight="true"
       only_selected="false" /><inkscape:path-effect
       effect="bspline"
       id="path-effect4212"
       is_visible="true"
       lpeversion="1"
       weight="33.333333"
       steps="2"
       helper_size="0"
       apply_no_weight="true"
       apply_with_weight="true"
       only_selected="false" /><inkscape:path-effect
       effect="bspline"
       id="path-effect4208"
       is_visible="true"
       lpeversion="1"
       weight="33.333333"
       steps="2"
       helper_size="0"
       apply_no_weight="true"
       apply_with_weight="true"
       only_selected="false" /><inkscape:path-effect
       effect="bspline"
       id="path-effect4204"
       is_visible="true"
       lpeversion="1"
       weight="33.333333"
       steps="2"
       helper_size="0"
       apply_no_weight="true"
       apply_with_weight="true"
       only_selected="false" /><inkscape:path-effect
       effect="bspline"
       id="path-effect4200"
       is_visible="true"
       lpeversion="1"
       weight="33.333333"
       steps="2"
       helper_size="0"
       apply_no_weight="true"
       apply_with_weight="true"
       only_selected="false" /><inkscape:path-effect
       effect="bspline"
       id="path-effect4014"
       is_visible="true"
       lpeversion="1"
       weight="33.333333"
       steps="2"
       helper_size="0"
       apply_no_weight="true"
       apply_with_weight="true"
       only_selected="false" /><inkscape:path-effect
       effect="bspline"
       id="path-effect2374"
       is_visible="true"
       lpeversion="1"
       weight="33.333333"
       steps="2"
       helper_size="0"
       apply_no_weight="true"
       apply_with_weight="true"
       only_selected="false" /><inkscape:path-effect
       effect="bspline"
       id="path-effect2370"
       is_visible="true"
       lpeversion="1"
       weight="33.333333"
       steps="2"
       helper_size="0"
       apply_no_weight="true"
       apply_with_weight="true"
       only_selected="false" /><inkscape:path-effect
       effect="bspline"
       id="path-effect2321"
       is_visible="true"
       lpeversion="1"
       weight="33.333333"
       steps="2"
       helper_size="0"
       apply_no_weight="true"
       apply_with_weight="true"
       only_selected="false" /><inkscape:path-effect
       effect="bspline"
       id="path-effect2142"
       is_visible="true"
       lpeversion="1"
       weight="33.333333"
       steps="2"
       helper_size="0"
       apply_no_weight="true"
       apply_with_weight="true"
       only_selected="false" /><inkscape:path-effect
       effect="bspline"
       id="path-effect2138"
       is_visible="true"
       lpeversion="1"
       weight="33.333333"
       steps="2"
       helper_size="0"
       apply_no_weight="true"
       apply_with_weight="true"
       only_selected="false" /><inkscape:path-effect
       effect="bspline"
       id="path-effect2092"
       is_visible="true"
       lpeversion="1"
       weight="33.333333"
       steps="2"
       helper_size="0"
       apply_no_weight="true"
       apply_with_weight="true"
       only_selected="false" /><inkscape:path-effect
       effect="bspline"
       id="path-effect2088"
       is_visible="true"
       lpeversion="1"
       weight="33.333333"
       steps="2"
       helper_size="0"
       apply_no_weight="true"
       apply_with_weight="true"
       only_selected="false" /><inkscape:path-effect
       effect="bspline"
       id="path-effect2008"
       is_visible="true"
       lpeversion="1"
       weight="33.333333"
       steps="2"
       helper_size="0"
       apply_no_weight="true"
       apply_with_weight="true"
       only_selected="false" /><inkscape:path-effect
       effect="bspline"
       id="path-effect2004"
       is_visible="true"
       lpeversion="1"
       weight="33.333333"
       steps="2"
       helper_size="0"
       apply_no_weight="true"
       apply_with_weight="true"
       only_selected="false" /><inkscape:path-effect
       effect="bspline"
       id="path-effect2000"
       is_visible="true"
       lpeversion="1"
       weight="33.333333"
       steps="2"
       helper_size="0"
       apply_no_weight="true"
       apply_with_weight="true"
       only_selected="false" /><inkscape:path-effect
       effect="bspline"
       id="path-effect1996"
       is_visible="true"
       lpeversion="1"
       weight="33.333333"
       steps="2"
       helper_size="0"
       apply_no_weight="true"
       apply_with_weight="true"
       only_selected="false" /><inkscape:path-effect
       effect="bspline"
       id="path-effect1886"
       is_visible="true"
       lpeversion="1"
       weight="33.333333"
       steps="2"
       helper_size="0"
       apply_no_weight="true"
       apply_with_weight="true"
       only_selected="false" /><inkscape:path-effect
       effect="bspline"
       id="path-effect1882"
       is_visible="true"
       lpeversion="1"
       weight="33.333333"
       steps="2"
       helper_size="0"
       apply_no_weight="true"
       apply_with_weight="true"
       only_selected="false" /><inkscape:path-effect
       effect="bspline"
       id="path-effect1878"
       is_visible="true"
       lpeversion="1"
       weight="33.333333"
       steps="2"
       helper_size="0"
       apply_no_weight="true"
       apply_with_weight="true"
       only_selected="false" /><inkscape:path-effect
       effect="bspline"
       id="path-effect1874"
       is_visible="true"
       lpeversion="1"
       weight="33.333333"
       steps="2"
       helper_size="0"
       apply_no_weight="true"
       apply_with_weight="true"
       only_selected="false" /><inkscape:path-effect
       effect="bspline"
       id="path-effect1870"
       is_visible="true"
       lpeversion="1"
       weight="33.333333"
       steps="2"
       helper_size="0"
       apply_no_weight="true"
       apply_with_weight="true"
       only_selected="false" /><inkscape:path-effect
       effect="bspline"
       id="path-effect1808"
       is_visible="true"
       lpeversion="1"
       weight="33.333333"
       steps="2"
       helper_size="0"
       apply_no_weight="true"
       apply_with_weight="true"
       only_selected="false" /><inkscape:path-effect
       effect="bspline"
       id="path-effect1804"
       is_visible="true"
       lpeversion="1"
       weight="33.333333"
       steps="2"
       helper_size="0"
       apply_no_weight="true"
       apply_with_weight="true"
       only_selected="false" /><inkscape:path-effect
       effect="bspline"
       id="path-effect1772"
       is_visible="true"
       lpeversion="1"
       weight="33.333333"
       steps="2"
       helper_size="0"
       apply_no_weight="true"
       apply_with_weight="true"
       only_selected="false" /><inkscape:path-effect
       effect="bspline"
       id="path-effect1716"
       is_visible="true"
       lpeversion="1"
       weight="33.333333"
       steps="2"
       helper_size="0"
       apply_no_weight="true"
       apply_with_weight="true"
       only_selected="false" /><inkscape:path-effect
       effect="bspline"
       id="path-effect1474"
       is_visible="true"
       lpeversion="1"
       weight="33.333333"
       steps="2"
       helper_size="0"
       apply_no_weight="true"
       apply_with_weight="true"
       only_selected="false" /><inkscape:path-effect
       effect="bspline"
       id="path-effect853"
       is_visible="true"
       lpeversion="1"
       weight="33.333333"
       steps="2"
       helper_size="0"
       apply_no_weight="true"
       apply_with_weight="true"
       only_selected="false" /><inkscape:path-effect
       effect="bspline"
       id="path-effect1778"
       is_visible="true"
       lpeversion="1"
       weight="33.333333"
       steps="2"
       helper_size="0"
       apply_no_weight="true"
       apply_with_weight="true"
       only_selected="false" /><inkscape:path-effect
       effect="bspline"
       id="path-effect1751"
       is_visible="true"
       lpeversion="1"
       weight="33.333333"
       steps="2"
       helper_size="0"
       apply_no_weight="true"
       apply_with_weight="true"
       only_selected="false" /><inkscape:path-effect
       effect="bspline"
       id="path-effect1726"
       is_visible="true"
       lpeversion="1"
       weight="33.333333"
       steps="2"
       helper_size="0"
       apply_no_weight="true"
       apply_with_weight="true"
       only_selected="false" /><inkscape:path-effect
       effect="bspline"
       id="path-effect1683"
       is_visible="true"
       lpeversion="1"
       weight="33.333333"
       steps="2"
       helper_size="0"
       apply_no_weight="true"
       apply_with_weight="true"
       only_selected="false" /><inkscape:path-effect
       effect="bspline"
       id="path-effect1679"
       is_visible="true"
       lpeversion="1"
       weight="33.333333"
       steps="2"
       helper_size="0"
       apply_no_weight="true"
       apply_with_weight="true"
       only_selected="false" /><inkscape:path-effect
       effect="bspline"
       id="path-effect1526"
       is_visible="true"
       lpeversion="1"
       weight="33.333333"
       steps="2"
       helper_size="0"
       apply_no_weight="true"
       apply_with_weight="true"
       only_selected="false" /><inkscape:path-effect
       effect="bspline"
       id="path-effect1522"
       is_visible="true"
       lpeversion="1"
       weight="33.333333"
       steps="2"
       helper_size="0"
       apply_no_weight="true"
       apply_with_weight="true"
       only_selected="false" /><inkscape:path-effect
       effect="bspline"
       id="path-effect1518"
       is_visible="true"
       lpeversion="1"
       weight="33.333333"
       steps="2"
       helper_size="0"
       apply_no_weight="true"
       apply_with_weight="true"
       only_selected="false" /><inkscape:path-effect
       effect="bspline"
       id="path-effect1465"
       is_visible="true"
       lpeversion="1"
       weight="33.333333"
       steps="2"
       helper_size="0"
       apply_no_weight="true"
       apply_with_weight="true"
       only_selected="false" /><inkscape:path-effect
       effect="bspline"
       id="path-effect1412"
       is_visible="true"
       lpeversion="1"
       weight="33.333333"
       steps="2"
       helper_size="0"
       apply_no_weight="true"
       apply_with_weight="true"
       only_selected="false" /><rect
       x="-1838.4034"
       y="385.07272"
       width="556.45142"
       height="105.66717"
       id="rect1116" /><filter
       style="color-interpolation-filters:sRGB"
       inkscape:label="Invert"
       id="filter864"
       x="0"
       y="0"
       width="1"
       height="1"><feColorMatrix
         type="hueRotate"
         values="180"
         result="color1"
         id="feColorMatrix860" /><feColorMatrix
         values="-1 0 0 0 1 0 -1 0 0 1 0 0 -1 0 1 -0.21 -0.72 -0.07 2 0 "
         result="color2"
         id="feColorMatrix862" /></filter><inkscape:path-effect
       effect="bspline"
       id="path-effect1474-3"
       is_visible="true"
       lpeversion="1"
       weight="33.333333"
       steps="2"
       helper_size="0"
       apply_no_weight="true"
       apply_with_weight="true"
       only_selected="false" /><inkscape:path-effect
       effect="bspline"
       id="path-effect1474-7"
       is_visible="true"
       lpeversion="1"
       weight="33.333333"
       steps="2"
       helper_size="0"
       apply_no_weight="true"
       apply_with_weight="true"
       only_selected="false" /><inkscape:path-effect
       effect="bspline"
       id="path-effect1474-9"
       is_visible="true"
       lpeversion="1"
       weight="33.333333"
       steps="2"
       helper_size="0"
       apply_no_weight="true"
       apply_with_weight="true"
       only_selected="false" /><inkscape:path-effect
       effect="bspline"
       id="path-effect7595-2"
       is_visible="true"
       lpeversion="1"
       weight="33.333333"
       steps="2"
       helper_size="0"
       apply_no_weight="true"
       apply_with_weight="true"
       only_selected="false" /><inkscape:path-effect
       effect="bspline"
       id="path-effect7591-7"
       is_visible="true"
       lpeversion="1"
       weight="33.333333"
       steps="2"
       helper_size="0"
       apply_no_weight="true"
       apply_with_weight="true"
       only_selected="false" /><inkscape:path-effect
       effect="bspline"
       id="path-effect1474-36"
       is_visible="true"
       lpeversion="1"
       weight="33.333333"
       steps="2"
       helper_size="0"
       apply_no_weight="true"
       apply_with_weight="true"
       only_selected="false" /><inkscape:path-effect
       effect="bspline"
       id="path-effect1474-5"
       is_visible="true"
       lpeversion="1"
       weight="33.333333"
       steps="2"
       helper_size="0"
       apply_no_weight="true"
       apply_with_weight="true"
       only_selected="false" /><clipPath
       clipPathUnits="userSpaceOnUse"
       id="clipPath3106"><rect
         style="fill:#000000;stroke:#000000;stroke-width:0.1;stroke-linecap:round"
         id="rect3108"
         width="76.673485"
         height="83.044197"
         x="304.71576"
         y="241.50412"
         transform="scale(-1,1)" /></clipPath></defs><g
     inkscape:label="Layer 1"
     inkscape:groupmode="layer"
     id="layer1"
     transform="translate(1400.2676,574.07178)"><path
       style="opacity:1;fill:#46004d;stroke:#46004d;stroke-width:0.144993;stroke-linecap:round;stroke-opacity:1;fill-opacity:1"
       d="m -1368.5882,-492.80861 c -21.0639,39.14223 7.6835,61.66525 26.9504,92.06829 11.9891,18.91863 15.6055,33.141 15.6055,56.35377 v 0 c -4.4245,-11.44839 -13.1533,-24.66723 -19.1971,-33.05951 -10.6752,-14.82374 -19.4786,-22.72158 -27.854,-37.29346 -7.1081,-12.36687 -12.7811,-26.77768 -10.5926,-46.85567 1.0479,-9.61291 8.4568,-23.94827 15.0878,-31.21342 z"
       id="path4367"
       sodipodi:nodetypes="csccssscc" /><path
       style="fill:#46004d;stroke:#46004d;stroke-width:0.144993;stroke-linecap:round;stroke-opacity:1;fill-opacity:1"
       d="m -1367.7669,-564.80167 c 0.269,-0.0504 0.8069,-0.15126 5.691,-0.3811 4.8842,-0.22984 14.1062,-0.58835 22.7747,3.0507 8.6685,3.63904 16.7781,11.27454 22.1304,18.7053 5.3523,7.43077 7.946,14.65499 10.881,18.95702 2.9349,4.30204 6.2107,5.68183 8.8773,6.11522 2.6666,0.4334 4.7245,-0.0793 4.5131,-4.2343 -0.2114,-4.15503 -2.6918,-11.95318 -6.667,-18.80722 -3.9752,-6.85404 -9.4454,-12.76425 -12.1807,-15.71957 -2.7353,-2.95533 -2.7353,-2.95533 0.6556,-1.03526 3.3909,1.92006 10.1721,5.75978 14.9721,11.94715 4.8,6.18736 7.6185,14.72154 10.9485,18.16208 3.33,3.44055 7.1717,1.78813 8.7834,-0.38262 1.6117,-2.17075 0.9936,-4.8603 -1.7637,-10.93286 -2.7573,-6.07256 -7.6538,-15.52779 -17.2464,-22.64003 -9.5925,-7.11224 -23.8807,-11.8809 -36.8091,-11.99983 -12.9283,-0.11894 -24.4953,4.41204 -30.2791,6.67762 -5.7837,2.26559 -5.5501,2.56813 -5.2811,2.5177 z"
       id="path1472"
       inkscape:path-effect="#path-effect1474"
       inkscape:original-d="m -1368.0359,-564.75124 c 0.5381,-0.10034 1.076,-0.20119 1.6139,-0.30254 9.2303,-0.35837 18.4523,-0.71688 27.6783,-1.07601 8.111,7.63676 16.2206,15.2723 24.3312,22.90861 2.5942,7.22512 5.1879,14.44934 7.7814,21.67351 3.2761,1.38015 6.5519,2.75993 9.8271,4.13926 2.0582,-0.51226 4.1161,-1.02492 6.1734,-1.53796 -2.48,-7.79755 -4.9605,-15.59567 -7.441,-23.39376 -5.47,-5.90993 -10.9402,-11.82015 -16.4108,-17.73082 v 0 c 6.7818,3.84021 13.5629,7.67996 20.3444,11.51976 2.8188,8.53477 5.6372,17.06896 8.4553,25.60254 3.842,-1.65198 7.6837,-3.3044 11.525,-4.95719 -0.6178,-2.68924 -1.2359,-5.3788 -1.8545,-8.06882 -4.8962,-9.4551 -9.7927,-18.91031 -14.6895,-28.36601 -14.2885,-4.76858 -28.5767,-9.53722 -42.8659,-14.30639 -11.5672,4.53162 -23.1342,9.06263 -34.7019,13.59328 z"
       sodipodi:nodetypes="cccccccccccccccccc" /><path
       style="fill:#46004d;stroke:#46004d;stroke-width:0.144993;stroke-linecap:round;stroke-opacity:1;fill-opacity:1"
       d="m -1372.3699,-504.30546 c -1.248,-1.95361 -3.7441,-5.86109 -5.3579,-12.38353 -1.6139,-6.52244 -2.3451,-15.6593 -1.0514,-22.87546 1.2937,-7.21616 4.7859,-12.78773 8.8737,-15.31049 4.0877,-2.52276 9.6715,-2.55271 14.9783,-2.58118 0,0 0,0 -1.2494,0.84551 -1.2494,0.8455 -3.7482,2.53651 -5.6572,4.69682 -1.9089,2.16031 -3.26,4.85358 -3.9213,6.94735 -0.6613,2.09377 -0.699,3.7974 -0.7173,4.62873 -0.018,0.83132 -0.018,0.83132 1.2283,-0.31251 1.2468,-1.14383 3.7403,-3.43156 7.8438,-6.18431 4.1034,-2.75275 9.8167,-5.97048 15.1774,-5.85201 5.3608,0.11846 6.8543,1.14873 8.4793,2.26971 1.625,1.12099 1.625,1.12099 -1.4181,2.13959 -3.0431,1.0186 -9.1295,3.05588 -15.158,7.15822 -6.0286,4.10235 -11.9989,10.26957 -15.4561,17.07507 -3.4573,6.80551 -4.4014,14.24892 -4.8735,17.97044 -0.472,3.72153 -0.4726,3.72166 -1.7206,1.76805 z"
       id="path2372"
       inkscape:path-effect="#path-effect2374"
       inkscape:original-d="m -1371.1219,-502.35185 c -2.4959,-3.90726 -4.9921,-7.81469 -7.4886,-11.72279 -0.7309,-9.13681 -1.4622,-18.27367 -2.1937,-27.4112 3.3191,-5.29453 6.8113,-10.8661 9.9565,-15.88488 5.0299,-0.0265 15.9205,-0.0854 15.9205,-0.0854 v 0 c -2.4985,1.69146 -4.9973,3.38245 -7.4964,5.07304 -1.3187,2.62981 -3.2474,5.03331 -3.957,7.88811 -0.036,1.6223 -0.074,3.32592 -0.1102,4.98858 v 0 c 2.4938,-2.2873 4.9874,-4.575 7.4806,-6.86313 5.7136,-3.21729 11.4269,-6.43501 17.14,-9.65326 5.0079,3.45493 6.5015,4.48506 9.7516,6.72694 v 0 c -6.086,2.03772 -12.1724,4.075 -18.2592,6.11183 -5.9701,6.16768 -11.9404,12.33494 -17.9111,18.50175 -0.9437,7.44388 -1.8879,14.88728 -2.8324,22.33028 z"
       sodipodi:nodetypes="ccccccaaccccccaacc" /><path
       style="opacity:1;fill:#46004d;stroke:#46004d;stroke-width:0.165889;stroke-linecap:round;stroke-dasharray:none;stroke-opacity:1;fill-opacity:1"
       d="m -1267.8685,-501.64869 c 3.0824,1.50525 9.2466,4.51545 15.7659,10.64568 6.5193,6.13023 13.3938,15.38029 17.291,22.46843 3.8972,7.08814 4.817,12.01353 5.2769,14.4764 0.4599,2.46288 0.4599,2.46288 -0.847,1.19837 -1.3068,-1.26451 -3.921,-3.79401 -10.2633,-4.70267 -6.3422,-0.90866 -16.412,-0.19614 -25.4599,-0.81645 -9.048,-0.62031 -17.0732,-2.57357 -23.2824,-5.73164 -6.2092,-3.15808 -10.6016,-7.52094 -11.5823,-12.67602 -0.9807,-5.15508 1.4507,-11.1017 2.6664,-14.07513 1.2158,-2.97344 1.2158,-2.97343 -1.5813,-0.0145 -2.7972,2.95893 -8.3913,8.87665 -8.9859,15.57986 -0.5946,6.70322 3.8102,14.19064 9.0006,19.00868 5.1904,4.81803 11.1652,6.96635 19.2991,8.19018 8.1339,1.22384 18.4253,1.52308 25.9863,1.74357 7.5609,0.2205 12.3902,0.36221 17.6834,2.10081 5.2932,1.7386 11.0498,5.0737 15.0211,7.21281 3.9714,2.13911 6.157,3.0821 8.2256,3.11325 2.0686,0.0312 4.0204,-0.84919 5.6472,-2.78908 1.6269,-1.93988 2.9289,-4.93941 3.338,-6.81005 0.4091,-1.87063 -0.075,-2.61272 -0.7168,-2.95329 -0.6416,-0.34056 -1.4405,-0.27911 -3.8523,-1.08246 -2.4118,-0.80334 -6.4364,-2.47176 -9.3145,-5.65154 -2.8782,-3.17978 -4.6094,-7.87114 -5.475,-10.21705 -0.8657,-2.34592 -0.8657,-2.34592 0.3915,-0.90923 1.2573,1.43668 3.7712,4.30937 7.1822,6.16919 3.4109,1.85982 7.7183,2.70682 9.8719,3.13028 2.1535,0.42347 2.1535,0.5296 2.232,-0.22406 0.078,-0.75366 0.2353,-2.26127 -0.2972,-3.88288 -0.5326,-1.62161 -1.755,-3.3573 -4.5722,-6.64638 -2.8171,-3.28908 -7.2293,-8.13183 -11.7406,-13.08109 -4.5113,-4.94926 -9.1226,-10.00605 -15.8245,-17.42649 -6.7019,-7.42044 -15.4946,-17.2048 -21.0078,-22.35703 -5.5132,-5.15222 -7.7466,-5.67156 -9.5375,-5.63878 -1.7909,0.0328 -3.1391,0.61805 -4.6165,2.04038 -1.4774,1.42233 -3.0837,3.68151 -4.9052,5.35766 -1.8216,1.67615 -3.8585,2.76918 -5.4932,3.40348 -1.6347,0.63431 -2.8671,0.80971 -2.6745,2.04167 0.1925,1.23195 1.8099,3.51923 3.4277,5.80707 0,0 0,0 0,0 -2.0462,-1.19647 -4.1197,-2.40889 -6.9807,-3.75729 -2.861,-1.34839 -6.729,-2.93223 -10.8139,-3.74507 -4.0849,-0.81284 -8.7897,-0.9322 -14.1085,0.12307 -5.3188,1.05527 -11.6985,3.35704 -14.8348,4.48861 -3.1363,1.13156 -3.1363,1.13156 -2.5378,3.0496 0.5985,1.91804 1.7952,5.75352 3.4953,8.78167 1.7,3.02816 3.9025,5.24823 6.7203,6.76209 2.8178,1.51386 6.25,2.32101 7.9658,2.72451 1.7158,0.4035 1.7158,0.4035 0.4724,-0.84143 -1.2435,-1.24493 -3.7311,-3.73549 -5.8468,-6.24371 -2.1158,-2.50822 -3.86,-5.03456 -4.7323,-6.29794 -0.8723,-1.26338 -0.8723,-1.26338 1.894,-2.2074 2.7663,-0.94403 8.2982,-2.83183 15.7079,-2.18885 7.4096,0.64298 16.6951,3.81628 24.1036,8.13557 7.4085,4.31928 12.9379,9.78326 15.7291,12.48874 2.7911,2.70547 2.8447,2.65206 2.898,2.59892 -0.9013,-5.34822 -1.8425,-10.9333 -3.2119,-14.33549 -1.3695,-3.40219 -3.4223,-5.25331 -5.3874,-7.02538 0,0 0.1084,-0.0174 3.1908,1.48783 z"
       id="path1776"
       sodipodi:nodetypes="ccccccccccccccccccccccccccccccccccccccccsaacccccccccccccscc"
       inkscape:original-d="m -1270.9509,-503.15394 c 6.1648,3.01056 12.329,6.02079 18.4927,9.03063 6.8751,9.25038 13.7496,18.50047 20.6239,27.75053 0.9204,4.92625 1.8401,9.85165 2.7595,14.77748 v 0 c -2.6136,-2.52913 -5.2279,-5.05854 -7.8425,-7.58837 -10.0699,0.71288 -20.1397,1.42542 -30.2106,2.13764 -8.025,-1.95304 -16.0502,-3.90627 -24.0764,-5.85999 -4.3922,-4.36261 -8.7846,-8.72549 -13.1775,-13.08883 2.4318,-5.94669 4.8632,-11.89331 7.2944,-17.84031 v 10e-6 c -5.594,5.91811 -11.1881,11.83585 -16.7829,17.75371 4.4054,7.48825 8.8102,14.97568 13.2149,22.4631 5.9759,2.14884 11.9508,4.29714 17.926,6.44541 10.2926,0.29953 20.584,0.59877 30.8761,0.89777 4.8298,0.14198 9.6591,0.28369 14.4882,0.42514 5.7573,3.33553 11.5139,6.67066 17.2704,10.0056 2.1861,0.94335 4.3717,1.88633 6.5569,2.829 1.9523,-0.88002 3.9041,-1.76037 5.8555,-2.64109 1.3026,-2.99928 2.6047,-5.9988 3.9063,-8.99879 -0.4837,-0.74171 -0.9681,-1.48377 -1.453,-2.22617 -0.7985,0.0618 -1.5974,0.12324 -2.3969,0.18438 -4.0241,-1.66811 -8.0487,-3.3365 -12.074,-5.00533 -1.7306,-4.69098 -3.4618,-9.38233 -5.1935,-14.07403 6e-4,3.2e-4 6e-4,3.2e-4 0,0 2.5147,2.87319 5.0285,5.74596 7.5421,8.61853 4.3082,0.84738 8.6156,1.6944 12.9227,2.5411 v 0.10613 c 0.1574,-1.50727 0.3143,-3.01488 0.4708,-4.52287 -1.2219,-1.73544 -2.4443,-3.47114 -3.6674,-5.20729 -4.4114,-4.84184 -8.8236,-9.68462 -13.2356,-14.52706 -4.6106,-5.05608 -9.2219,-10.11287 -13.8332,-15.16958 -8.7925,-9.78415 -17.5852,-19.56851 -26.3787,-29.35374 -2.2329,-0.519 -4.4663,-1.03835 -6.7004,-1.55807 -1.3475,0.58558 -2.6957,1.1708 -4.0443,1.75573 -1.6059,2.25961 -3.2121,4.51886 -4.8191,6.77786 -2.0364,1.0934 -4.0733,2.18645 -6.1109,3.27918 -1.232,0.17576 -2.4644,0.35118 -3.6976,0.52627 1.6184,2.28826 4.8534,6.86352 4.8534,6.86352 v 0 c 0,0 -4.1197,-2.40885 -6.1386,-3.58941 -3.7031,-1.51617 -7.2934,-3.77835 -11.264,-4.61222 -4.456,-0.9358 -9.1604,-1.07384 -13.6551,-0.34642 -6.5823,1.06527 -12.5438,4.52612 -18.8165,6.78893 4e-4,3.7e-4 4e-4,3.7e-4 0,0 1.1972,3.83601 2.394,7.67148 3.5905,11.50694 2.2033,2.22095 4.4058,4.44098 6.6086,6.66142 3.4328,0.8075 6.865,1.61465 10.2966,2.42145 5e-4,3.8e-4 5e-4,3.8e-4 0,0 -2.4869,-2.48986 -4.9745,-4.98041 -7.462,-7.47091 -1.7439,-2.52601 -3.4882,-5.05232 -5.2328,-7.57905 3e-4,3.8e-4 3e-4,3.8e-4 0,0 5.5328,-1.88757 11.0647,-3.77539 16.5967,-5.66373 9.287,3.174 18.5725,6.3473 27.8593,9.52087 5.5303,5.46485 11.0597,10.92886 16.589,16.39264 0.053,-0.0529 0.1599,-0.15942 0.1599,-0.15942 0,0 -1.8423,-10.93334 -2.7039,-16.04465 -1.8774,-1.69311 -5.8954,-5.31622 -5.8954,-5.31622 z"
       inkscape:path-effect="#path-effect1778" /><path
       style="opacity:1;fill:#46004d;stroke:#46004d;stroke-width:0.144993;stroke-linecap:round;stroke-opacity:1;fill-opacity:1"
       d="m -1271.9763,-410.14236 c 0,0 3.2664,-6.22199 5.5801,-13.88598 1.7734,-5.87438 2.6706,-13.22892 3.0173,-15.46008 0.029,-0.18803 0.059,-0.37598 0.087,-0.56408 v 0 c 0.046,0.15484 0.091,0.30976 0.1377,0.46476 0.116,0.39545 0.2282,0.7914 0.3383,1.18779 5.0812,18.31078 4.3019,37.58771 -7.2179,55.34922 -11.0525,17.04096 -21.3358,27.1731 -40.5657,46.0285 v 0 c -2.5237,-5.7229 -2.1505,-18.18236 -2.8572,-23.89416 -1.6842,-13.61033 -2.3223,-21.21028 -11.129,-41.02547 -8.8749,-19.96848 -25.4026,-29.07094 -33.1731,-50.43978 -3.4468,-9.47891 -3.3103,-18.97135 -2.9075,-29.07659 v 0 c 0.036,2.23729 0.1073,4.20624 0.1553,6.29482 0.3097,13.53416 16.7923,26.66057 29.0623,39.36179 10.2445,10.60453 21.164,22.89416 27.3287,34.73582 5.3434,10.26418 6.7326,20.19179 5.6992,28.39376 v 0 c 5.0839,-5.63145 10.3332,-10.36071 14.1831,-16.51036 0.8254,-1.31868 1.6369,-2.74216 1.8559,-4.28245 0.9782,-6.88338 -3.2229,-12.23696 -7.2504,-18.62378 -6.5496,-10.38621 -16.5361,-18.27269 -24.5325,-25.91772 -22.3741,-21.39101 -35.5234,-25.24331 -28.3674,-63.19362 v 0 c -0.2324,5.6553 0.3058,17.21441 12.1055,29.87257 7.4625,8.00547 12.3236,13.84459 21.1169,20.52234 3.6626,2.78154 17.5479,11.53521 24.4734,19.40241 8.3132,9.44356 12.6064,20.54789 12.8602,21.26029"
       id="path3558"
       sodipodi:nodetypes="cscccsssccsssccsssccasssccsssc" /><path
       style="opacity:1;fill:#46004d;stroke:#46004d;stroke-width:0.144993;stroke-linecap:round;stroke-opacity:1;fill-opacity:1"
       d="m -1353.1795,-353.38464 c -0.075,-14.53364 -5.1784,-21.09479 -11.0576,-28.37289 -5.6383,-6.97991 -9.5024,-11.94911 -15.2046,-19.95526 -12.9673,-18.20619 -18.9181,-36.32591 -13.1229,-63.21122 v 0 c -6.3823,12.42879 -13.4378,44.53528 0.1247,67.31476 6.1093,10.26059 15.1584,16.60269 23.1623,24.73141 5.7496,5.83933 10.1752,10.92598 16.0975,19.4932 z"
       id="path5875"
       sodipodi:nodetypes="cssccsscc" /></g></svg>
